<svg width="200" height="241" viewBox="0 0 200 241" fill="none" xmlns="http://www.w3.org/2000/svg">
<g clip-path="url(#clip0_22_89)">
<g filter="url(#filter0_d_22_89)">
<path d="M161.869 231.36L183.693 194.443C185.156 191.97 182.442 188.913 179.848 190.151C173.281 193.287 167.719 198.448 164.235 204.846C161.758 194.726 169.237 185.481 176.243 178.147C181.811 172.315 187.754 165.382 188.844 157.674C189.287 154.55 186.095 152.028 183.169 153.128C176.644 155.582 170.881 159.93 166.823 165.572C172.747 153.057 180.419 141.424 189.558 131.105C191.643 128.751 193.888 126.03 195.178 123.157C196.81 119.524 193.173 115.489 189.429 116.849C185.235 118.374 181.366 120.728 178.126 123.764C186.319 111.488 194.882 97.2504 191.22 82.5613C190.45 79.4769 189.003 76.2827 184.905 75.7517C183.226 75.5341 181.519 75.8874 180.062 76.686C176.62 78.5745 174.794 82.1879 173.346 85.7554C169.875 94.3058 167.866 103.493 167.421 112.81C167.344 114.443 165.247 115.08 164.239 113.754C160.904 109.376 161.384 100.109 155.745 98.8695C153.021 98.2706 150.397 99.9535 149.537 102.561C147.955 107.362 150.512 111.682 152.612 115.864C157.515 125.625 160.362 136.361 160.908 147.137C158.355 145.914 155.792 144.718 153.218 143.546C147.916 141.134 142.564 146.249 144.706 151.669C147.836 159.593 154.742 167.64 155.81 176.282C155.973 177.604 155.947 179.119 154.177 179.622C152.571 180.079 150.818 179.289 149.853 177.867C145.772 171.854 139.169 177.202 139.455 182.415C139.691 186.737 142.804 190.384 145.77 193.626C148.735 196.869 151.89 200.454 152.249 204.772L144.388 202.71C141.196 201.871 138.788 205.301 140.547 208.128C142.417 211.133 145.508 213.776 148.348 216.01C153.186 219.815 158.439 225.396 156.648 231.116" fill="#F2E6C4"/>
<path d="M38.9528 230.833C37.8094 225.339 35.1871 219.761 30.4805 217.205C25.2915 214.389 17.7006 215.067 15.1617 209.478C13.8873 206.673 14.7449 202.969 17.0932 201.143C19.4415 199.316 23.0147 199.57 25.1387 201.714C26.7446 197.741 23.7293 193.347 20.4857 190.712C17.2421 188.077 13.3037 185.737 12.0154 181.616C10.7271 177.494 15.0883 171.976 18.3497 174.585C19.4931 175.5 20.2375 177.208 21.6589 177.328C23.0802 177.45 24.1164 175.695 23.9397 174.184C23.763 172.673 22.7884 171.423 21.8534 170.267C19.0128 166.754 16.1721 163.238 13.3295 159.724C11.0864 156.949 8.72214 153.861 8.60899 150.208C8.49783 146.554 12.0452 142.755 15.1439 144.336C17.3651 145.47 18.9572 148.916 21.2757 148.068C23.374 147.299 23.0087 143.997 22.0261 141.863C19.5428 136.465 15.7711 131.817 13.3692 126.377C10.9673 120.937 10.1812 114.022 13.6034 109.284C15.0506 107.28 17.389 105.793 19.7373 106.204C22.8301 106.745 24.6662 110.145 25.8513 113.245C29.091 121.71 30.8577 130.803 31.0344 139.926C33.6487 140.11 34.9469 136.732 35.7648 134.083C36.5826 131.434 38.9548 128.37 41.2396 129.749C42.1924 130.324 42.6609 131.516 42.8733 132.658C44.4713 141.316 35.5047 147.65 32.4199 155.806C31.5961 157.984 31.2071 160.481 31.9971 162.685C32.7892 164.887 35.0303 166.602 37.1801 166.085C39.6337 165.494 42.7165 162.667 43.9393 165.025C44.5785 166.258 43.6872 167.714 42.8833 168.824C39.5186 173.457 36.928 178.732 35.2705 184.327C34.2482 187.775 33.6626 191.828 35.6318 194.792C37.601 197.757 42.9904 197.657 43.6098 194.1C45.2197 194.078 46.2738 196.122 46.0475 197.821C45.8192 199.52 44.7611 200.925 43.8559 202.341C39.5622 209.058 38.2322 217.85 40.3245 225.706" fill="#F2E6C4"/>
<path d="M94.2015 236.508C145.32 236.508 186.759 232.743 186.759 228.098C186.759 223.452 145.32 219.687 94.2015 219.687C43.0832 219.687 1.64355 223.452 1.64355 228.098C1.64355 232.743 43.0832 236.508 94.2015 236.508Z" fill="#F2E6C4"/>
<path d="M52.1498 41.5701C46.2919 35.4193 46.2919 25.4455 52.1498 19.2947C58.0078 13.1439 67.5043 13.1439 73.3623 19.2947C79.2202 25.4455 79.2202 35.4193 73.3623 41.5701C67.5043 47.7208 58.0078 47.7208 52.1498 41.5701Z" stroke="#FBF7E5" stroke-width="0.71" stroke-miterlimit="10"/>
<path d="M23.7453 79.9661C22.2704 78.4169 22.2704 75.9075 23.7453 74.3583C25.2203 72.8091 27.6103 72.8091 29.0852 74.3583C30.5601 75.9075 30.5601 78.4169 29.0852 79.9661C27.6103 81.5152 25.2203 81.5152 23.7453 79.9661Z" stroke="#F2E6C4" stroke-width="0.71" stroke-miterlimit="10"/>
<path d="M150.806 53.2687C148.38 55.8161 144.448 55.8161 142.022 53.2687C139.596 50.7214 139.596 46.5909 142.022 44.0436C144.448 41.4962 148.38 41.4962 150.806 44.0436C153.232 46.5909 153.232 50.7214 150.806 53.2687Z" stroke="#F2E6C4" stroke-miterlimit="10"/>
<path d="M89.3797 7.84766H85.0046C84.5877 7.84766 84.2503 7.49231 84.2503 7.05511V2.4615C84.2503 2.0243 83.9128 1.66895 83.496 1.66895C83.0791 1.66895 82.7416 2.0243 82.7416 2.4615V7.05511C82.7416 7.49231 82.4042 7.84766 81.9873 7.84766H77.6142C77.1973 7.84766 76.8599 8.20302 76.8599 8.64022C76.8599 9.07742 77.1973 9.43277 77.6142 9.43277H81.9873C82.4042 9.43277 82.7416 9.78812 82.7416 10.2253V14.8189C82.7416 15.2561 83.0791 15.6115 83.496 15.6115C83.9128 15.6115 84.2503 15.2561 84.2503 14.8189V10.2253C84.2503 9.78812 84.5877 9.43277 85.0046 9.43277H89.3797C89.7966 9.43277 90.134 9.07742 90.134 8.64022C90.134 8.20302 89.7966 7.84766 89.3797 7.84766Z" fill="#F2E6C4"/>
<path d="M164.011 66.1033H159.467C159.034 66.1033 158.683 65.736 158.683 65.2808V60.5095C158.683 60.0543 158.331 59.687 157.899 59.687C157.466 59.687 157.114 60.0563 157.114 60.5095V65.2808C157.114 65.736 156.763 66.1033 156.33 66.1033H151.787C151.354 66.1033 151.002 66.4726 151.002 66.9258C151.002 67.381 151.354 67.7483 151.787 67.7483H156.33C156.763 67.7483 157.114 68.1176 157.114 68.5708V73.3421C157.114 73.7972 157.466 74.1646 157.899 74.1646C158.331 74.1646 158.683 73.7972 158.683 73.3421V68.5708C158.683 68.1156 159.034 67.7483 159.467 67.7483H164.011C164.443 67.7483 164.795 67.381 164.795 66.9258C164.795 66.4706 164.443 66.1033 164.011 66.1033Z" fill="#F2E6C4"/>
<path d="M135.62 54.2649H55.153C54.1082 54.2649 53.2612 55.1167 53.2612 56.1674V191.928C53.2612 192.978 54.1082 193.83 55.153 193.83H135.62C136.665 193.83 137.512 192.978 137.512 191.928V56.1674C137.512 55.1167 136.665 54.2649 135.62 54.2649Z" fill="#F2E6C4"/>
<path d="M80.8243 62.9749C80.5027 62.9749 80.2427 62.7014 80.2427 62.364V31.2708C80.2427 30.9334 80.5027 30.6599 80.8243 30.6599C81.1459 30.6599 81.4059 30.9334 81.4059 31.2708V62.364C81.4059 62.7014 81.1459 62.9749 80.8243 62.9749Z" fill="#F2E6C4"/>
<path d="M110.438 62.9749C110.116 62.9749 109.856 62.7014 109.856 62.364V31.2708C109.856 30.9334 110.116 30.6599 110.438 30.6599C110.759 30.6599 111.019 30.9334 111.019 31.2708V62.364C111.019 62.7014 110.759 62.9749 110.438 62.9749Z" fill="#F2E6C4"/>
<path d="M117.927 28.4081H73.3364C73.1687 28.4081 73.0327 28.5448 73.0327 28.7135V33.0436C73.0327 33.2123 73.1687 33.3491 73.3364 33.3491H117.927C118.095 33.3491 118.231 33.2123 118.231 33.0436V28.7135C118.231 28.5448 118.095 28.4081 117.927 28.4081Z" fill="#F2E6C4"/>
<path d="M165.926 211.416C164.683 211.416 163.677 212.428 163.677 213.678V222.719C163.677 223.969 164.683 224.981 165.926 224.981C167.169 224.981 168.175 223.969 168.175 222.719V213.678C168.175 212.428 167.169 211.416 165.926 211.416Z" fill="#6F5D3C"/>
<path d="M114.997 211.416C113.754 211.416 112.748 212.428 112.748 213.678V222.719C112.748 223.969 113.754 224.981 114.997 224.981C116.239 224.981 117.246 223.969 117.246 222.719V213.678C117.246 212.428 116.239 211.416 114.997 211.416Z" fill="#6F5D3C"/>
<path d="M175.321 105.308H106.1C105.092 105.308 104.275 106.129 104.275 107.142V219.146C104.275 220.159 105.092 220.981 106.1 220.981H175.321C176.329 220.981 177.145 220.159 177.145 219.146V107.142C177.145 106.129 176.329 105.308 175.321 105.308Z" fill="#C2AA60"/>
<path d="M129.694 108.472V91.0258" stroke="#504336" stroke-miterlimit="10" stroke-linecap="round"/>
<path d="M151.159 108.472V91.0258" stroke="#504336" stroke-miterlimit="10" stroke-linecap="round"/>
<path d="M156.505 89.6763H124.349C124.181 89.6763 124.045 89.813 124.045 89.9817V94.7091C124.045 94.8778 124.181 95.0145 124.349 95.0145H156.505C156.673 95.0145 156.809 94.8778 156.809 94.7091V89.9817C156.809 89.813 156.673 89.6763 156.505 89.6763Z" fill="#C2AA60"/>
<g opacity="0.56">
<path d="M174.132 139.633H107.424C107.33 139.633 107.255 139.709 107.255 139.803V142.43C107.255 142.524 107.33 142.6 107.424 142.6H174.132C174.225 142.6 174.301 142.524 174.301 142.43V139.803C174.301 139.709 174.225 139.633 174.132 139.633Z" fill="#D9BB78"/>
<path d="M174.132 128.957H107.424C107.33 128.957 107.255 129.033 107.255 129.126V131.754C107.255 131.847 107.33 131.923 107.424 131.923H174.132C174.225 131.923 174.301 131.847 174.301 131.754V129.126C174.301 129.033 174.225 128.957 174.132 128.957Z" fill="#D9BB78"/>
<path d="M174.132 117.685H107.424C107.33 117.685 107.255 117.761 107.255 117.855V120.482C107.255 120.576 107.33 120.652 107.424 120.652H174.132C174.225 120.652 174.301 120.576 174.301 120.482V117.855C174.301 117.761 174.225 117.685 174.132 117.685Z" fill="#D9BB78"/>
<path d="M174.132 173.693H107.424C107.33 173.693 107.255 173.769 107.255 173.863V176.49C107.255 176.583 107.33 176.659 107.424 176.659H174.132C174.225 176.659 174.301 176.583 174.301 176.49V173.863C174.301 173.769 174.225 173.693 174.132 173.693Z" fill="#D9BB78"/>
<path d="M174.132 163.016H107.424C107.33 163.016 107.255 163.092 107.255 163.186V165.813C107.255 165.907 107.33 165.983 107.424 165.983H174.132C174.225 165.983 174.301 165.907 174.301 165.813V163.186C174.301 163.092 174.225 163.016 174.132 163.016Z" fill="#D9BB78"/>
<path d="M174.132 151.745H107.424C107.33 151.745 107.255 151.821 107.255 151.915V154.542C107.255 154.636 107.33 154.712 107.424 154.712H174.132C174.225 154.712 174.301 154.636 174.301 154.542V151.915C174.301 151.821 174.225 151.745 174.132 151.745Z" fill="#D9BB78"/>
<path d="M174.132 208.585H107.424C107.33 208.585 107.255 208.661 107.255 208.755V211.382C107.255 211.476 107.33 211.552 107.424 211.552H174.132C174.225 211.552 174.301 211.476 174.301 211.382V208.755C174.301 208.661 174.225 208.585 174.132 208.585Z" fill="#D9BB78"/>
<path d="M174.132 197.907H107.424C107.33 197.907 107.255 197.983 107.255 198.076V200.704C107.255 200.797 107.33 200.873 107.424 200.873H174.132C174.225 200.873 174.301 200.797 174.301 200.704V198.076C174.301 197.983 174.225 197.907 174.132 197.907Z" fill="#D9BB78"/>
<path d="M174.132 186.637H107.424C107.33 186.637 107.255 186.713 107.255 186.807V189.434C107.255 189.528 107.33 189.604 107.424 189.604H174.132C174.225 189.604 174.301 189.528 174.301 189.434V186.807C174.301 186.713 174.225 186.637 174.132 186.637Z" fill="#D9BB78"/>
</g>
<path d="M78.6247 186.561H148.543C151.08 186.561 153.138 188.632 153.138 191.183V225.842C153.138 226.63 152.503 227.269 151.719 227.269H75.4486C74.6645 227.269 74.0293 226.63 74.0293 225.842V191.183C74.0293 188.632 76.0878 186.561 78.6247 186.561Z" fill="#E2C98B"/>
<path d="M89.7293 226.241C89.1616 223.856 88.7189 221.44 88.4072 219.006C88.0996 216.599 87.9169 214.173 87.8613 211.746C87.8038 209.306 87.8733 206.865 88.0698 204.433C88.2663 201.988 88.5899 199.552 89.0425 197.14C89.4911 194.745 90.0668 192.371 90.7655 190.035C90.8509 189.75 90.9382 189.466 91.0275 189.183C91.0653 189.059 90.8747 189.007 90.837 189.129C90.1045 191.467 89.4971 193.842 89.0147 196.244C88.5343 198.644 88.181 201.069 87.9527 203.507C87.7244 205.948 87.6231 208.4 87.649 210.851C87.6748 213.303 87.8296 215.752 88.1115 218.186C88.3914 220.606 88.7963 223.011 89.3303 225.389C89.3978 225.69 89.4673 225.992 89.5387 226.293C89.5685 226.419 89.7591 226.365 89.7293 226.239V226.241Z" fill="#C2AA60"/>
<path d="M139.338 226.556C139.824 224.157 140.196 221.733 140.456 219.296C140.716 216.858 140.861 214.383 140.89 211.917C140.92 209.452 140.835 206.986 140.634 204.531C140.434 202.075 140.12 199.634 139.693 197.21C139.267 194.786 138.723 192.379 138.068 190.005C137.986 189.714 137.905 189.42 137.82 189.129C137.784 189.005 137.593 189.059 137.629 189.183C138.308 191.536 138.878 193.924 139.332 196.332C139.789 198.743 140.13 201.177 140.358 203.622C140.587 206.068 140.7 208.517 140.7 210.971C140.7 213.412 140.587 215.854 140.36 218.284C140.132 220.739 139.787 223.185 139.326 225.608C139.269 225.906 139.211 226.205 139.151 226.503C139.126 226.628 139.318 226.682 139.342 226.556H139.338Z" fill="#C2AA60"/>
<path d="M99.3707 193.507C100.601 195.234 102.146 196.725 103.907 197.899C105.667 199.073 107.611 199.913 109.655 200.372C111.7 200.831 113.778 200.883 115.825 200.53C117.872 200.177 119.867 199.424 121.657 198.352C123.471 197.266 125.093 195.85 126.403 194.183C126.564 193.978 126.721 193.77 126.872 193.559C126.947 193.455 126.775 193.355 126.701 193.459C125.476 195.164 123.936 196.635 122.185 197.785C120.434 198.935 118.543 199.743 116.532 200.189C114.521 200.634 112.448 200.684 110.428 200.324C108.407 199.965 106.451 199.218 104.689 198.158C102.902 197.084 101.31 195.687 100.018 194.044C99.8531 193.836 99.6963 193.622 99.5414 193.407C99.468 193.303 99.2953 193.403 99.3707 193.507Z" fill="#504336"/>
<path d="M126.409 193.131C125.915 192.503 126.215 191.335 127.033 191.155C127.446 191.065 127.882 191.255 128.16 191.56C128.474 191.906 128.549 192.397 128.349 192.82C128.126 193.283 127.62 193.644 127.094 193.549C126.969 193.527 126.916 193.718 127.041 193.74C127.587 193.84 128.115 193.551 128.416 193.099C128.718 192.648 128.744 192.069 128.45 191.614C128.18 191.197 127.688 190.911 127.186 190.935C126.683 190.959 126.302 191.287 126.11 191.728C125.891 192.231 125.925 192.836 126.268 193.273C126.348 193.373 126.487 193.231 126.409 193.131Z" fill="#504336"/>
<path d="M99.1386 193.571C98.2453 193.407 97.8324 192.123 98.5073 191.492C98.817 191.203 99.2855 191.097 99.6904 191.219C100.095 191.341 100.373 191.72 100.429 192.147C100.49 192.624 100.312 193.163 99.8909 193.423C99.7817 193.491 99.881 193.662 99.9902 193.594C100.846 193.065 100.881 191.55 99.9286 191.097C99.484 190.885 98.9281 190.941 98.5252 191.223C98.0924 191.526 97.9058 192.035 97.9932 192.552C98.0885 193.115 98.5093 193.656 99.0869 193.762C99.212 193.784 99.2656 193.592 99.1405 193.571H99.1386Z" fill="#504336"/>
<path d="M122.283 198.296V200.17L122.332 200.085C120.236 201.294 117.902 202.085 115.508 202.402C113.114 202.72 110.622 202.542 108.272 201.891C106.958 201.528 105.685 201.021 104.482 200.38L104.532 200.466C104.484 199.773 104.437 199.078 104.391 198.386C104.383 198.258 104.185 198.258 104.193 198.386C104.238 199.043 104.282 199.699 104.328 200.356C104.33 200.39 104.328 200.426 104.336 200.46C104.353 200.58 104.522 200.624 104.617 200.674C104.969 200.855 105.328 201.025 105.691 201.185C106.424 201.504 107.176 201.78 107.944 202.003C109.491 202.456 111.099 202.712 112.711 202.752C114.322 202.792 115.936 202.61 117.501 202.231C119.065 201.851 120.53 201.29 121.925 200.542C122.098 200.45 122.269 200.354 122.437 200.256C122.467 200.238 122.487 200.204 122.487 200.17V198.296C122.487 198.168 122.289 198.168 122.289 198.296H122.283Z" fill="#504336"/>
<path d="M67.7743 212.366C66.5039 212.366 65.4756 213.402 65.4756 214.678V223.917C65.4756 225.195 66.5058 226.229 67.7743 226.229C69.0447 226.229 70.073 225.193 70.073 223.917V214.678C70.073 213.4 69.0428 212.366 67.7743 212.366Z" fill="#6F5D3C"/>
<path d="M42.4091 212.366C41.1386 212.366 40.1104 213.402 40.1104 214.678V223.917C40.1104 225.195 41.1406 226.229 42.4091 226.229C43.6795 226.229 44.7078 225.193 44.7078 223.917V214.678C44.7078 213.4 43.6775 212.366 42.4091 212.366Z" fill="#6F5D3C"/>
<path d="M47.0317 148.97V87.3385" stroke="#504336" stroke-miterlimit="10" stroke-linecap="round"/>
<path d="M62.063 148.97V87.3385" stroke="#504336" stroke-miterlimit="10" stroke-linecap="round"/>
<path d="M65.7273 84.847H43.3694C43.2083 84.847 43.0776 84.9784 43.0776 85.1405V88.2928C43.0776 88.4548 43.2083 88.5862 43.3694 88.5862H65.7273C65.8885 88.5862 66.0191 88.4548 66.0191 88.2928V85.1405C66.0191 84.9784 65.8885 84.847 65.7273 84.847Z" fill="#C2AA60"/>
<path d="M78.4339 140.248H31.0562C30.0487 140.248 29.2319 141.069 29.2319 142.083V219.411C29.2319 220.425 30.0487 221.246 31.0562 221.246H78.4339C79.4415 221.246 80.2582 220.425 80.2582 219.411V142.083C80.2582 141.069 79.4415 140.248 78.4339 140.248Z" fill="#D9BB78"/>
<path d="M69.6183 221.296C75.516 221.296 80.298 216.275 80.298 210.08V151.513C80.298 145.319 75.516 140.298 69.6183 140.298H68.0938C67.9945 166.258 68.8977 189.682 66.0174 202.916C63.6433 213.82 57.027 218.609 51.4351 221.296H69.6183Z" fill="#C2AA60"/>
<path d="M70.8014 207.329H37.7023C37.6124 207.329 37.5396 207.403 37.5396 207.493V209.242C37.5396 209.332 37.6124 209.406 37.7023 209.406H70.8014C70.8913 209.406 70.9642 209.332 70.9642 209.242V207.493C70.9642 207.403 70.8913 207.329 70.8014 207.329Z" fill="#E2C98B"/>
<path d="M70.8014 199.853H37.7023C37.6124 199.853 37.5396 199.926 37.5396 200.017V201.766C37.5396 201.856 37.6124 201.929 37.7023 201.929H70.8014C70.8913 201.929 70.9642 201.856 70.9642 201.766V200.017C70.9642 199.926 70.8913 199.853 70.8014 199.853Z" fill="#E2C98B"/>
<path d="M37.7023 191.962H70.8014C70.8908 191.962 70.9642 192.035 70.9642 192.125V193.876C70.9642 193.966 70.8908 194.04 70.8014 194.04H37.7023C37.613 194.04 37.5396 193.966 37.5396 193.876V192.125C37.5396 192.035 37.613 191.962 37.7023 191.962Z" fill="#E2C98B"/>
<path d="M45.6804 150.631H38.2999C38.2626 150.631 38.2324 150.661 38.2324 150.699V160.948C38.2324 160.986 38.2626 161.016 38.2999 161.016H45.6804C45.7177 161.016 45.7479 160.986 45.7479 160.948V150.699C45.7479 150.661 45.7177 150.631 45.6804 150.631Z" stroke="#504336" stroke-miterlimit="10" stroke-linecap="round"/>
<path d="M80.3575 168.818C81.1138 168.778 81.7728 168.249 82.0646 167.558C82.3723 166.825 82.1917 165.987 81.6696 165.402C81.3837 165.083 81.0006 164.853 80.5798 164.783C80.4547 164.763 80.4011 164.955 80.5262 164.975C81.2091 165.089 81.7569 165.64 81.9495 166.298C82.142 166.957 81.9098 167.702 81.3917 168.171C81.1078 168.428 80.7445 168.596 80.3594 168.616C80.2324 168.622 80.2324 168.822 80.3594 168.816L80.3575 168.818Z" fill="#504336"/>
<path d="M80.4149 182.836C81.4769 182.778 82.5429 182.712 83.5891 182.509C84.5598 182.321 85.5324 182.006 86.3463 181.427C87.0828 180.904 87.6406 180.187 87.982 179.35C88.3235 178.514 88.4445 177.618 88.4704 176.727C88.4981 175.771 88.4048 174.817 88.3175 173.864C88.2063 172.649 88.1071 171.429 87.9761 170.215C87.7458 168.089 87.3131 165.897 85.9692 164.176C84.79 162.665 83.0193 161.589 81.1097 161.377C80.8636 161.349 80.6134 161.337 80.3653 161.339C80.2383 161.339 80.2383 161.539 80.3653 161.539C82.2829 161.527 84.1111 162.429 85.4094 163.827C86.8485 165.374 87.4222 167.452 87.6922 169.506C87.8411 170.642 87.9284 171.788 88.0317 172.93C88.1249 173.952 88.2441 174.978 88.2699 176.007C88.3135 177.731 88.0515 179.586 86.7513 180.834C85.2883 182.239 83.0908 182.469 81.1693 182.595C80.9172 182.61 80.665 182.624 80.4129 182.638C80.2859 182.644 80.2859 182.844 80.4129 182.838L80.4149 182.836Z" fill="#504336"/>
<path d="M55.3536 140.096C56.4653 142.274 57.698 144.388 59.0439 146.427C60.3759 148.447 61.819 150.391 63.3634 152.252C64.9078 154.113 66.5455 155.881 68.2804 157.554C70.0074 159.221 71.8277 160.792 73.7294 162.256C75.6153 163.707 77.5825 165.053 79.6211 166.276C79.8732 166.428 80.1273 166.578 80.3834 166.726C80.4946 166.789 80.5938 166.618 80.4827 166.554C78.4281 165.358 76.443 164.044 74.5374 162.621C72.6317 161.198 70.7816 159.642 69.0367 157.999C67.2918 156.356 65.6264 154.61 64.0681 152.781C62.5019 150.944 61.0369 149.02 59.6811 147.022C58.3253 145.023 57.0727 142.941 55.9432 140.799C55.8023 140.531 55.6633 140.262 55.5243 139.992C55.4668 139.879 55.2941 139.978 55.3536 140.092V140.096Z" fill="#504336"/>
</g>
</g>
<defs>
<filter id="filter0_d_22_89" x="-1.35645" y="-1.33105" width="213.936" height="254.839" filterUnits="userSpaceOnUse" color-interpolation-filters="sRGB">
<feFlood flood-opacity="0" result="BackgroundImageFix"/>
<feColorMatrix in="SourceAlpha" type="matrix" values="0 0 0 0 0 0 0 0 0 0 0 0 0 0 0 0 0 0 127 0" result="hardAlpha"/>
<feOffset dx="7" dy="7"/>
<feGaussianBlur stdDeviation="5"/>
<feColorMatrix type="matrix" values="0 0 0 0 0.0901961 0 0 0 0 0.219608 0 0 0 0 0.160784 0 0 0 0.15 0"/>
<feBlend mode="normal" in2="BackgroundImageFix" result="effect1_dropShadow_22_89"/>
<feBlend mode="normal" in="SourceGraphic" in2="effect1_dropShadow_22_89" result="shape"/>
</filter>
<clipPath id="clip0_22_89">
<rect width="200" height="241" fill="white"/>
</clipPath>
</defs>
</svg>
